<?xml version="1.0" standalone="no"?>
<!DOCTYPE svg PUBLIC "-//W3C//DTD SVG 20010904//EN"
 "http://www.w3.org/TR/2001/REC-SVG-20010904/DTD/svg10.dtd">
<svg version="1.0" xmlns="http://www.w3.org/2000/svg"
 width="481.000000pt" height="340.000000pt" viewBox="0 0 481.000000 340.000000"
 preserveAspectRatio="xMidYMid meet">
<metadata>
Created by potrace 1.16, written by Peter Selinger 2001-2019
</metadata>
<g transform="translate(0.000000,340.000000) scale(0.100000,-0.100000)"
fill="#000000" stroke="none">
<path d="M2232 2921 c-99 -34 -173 -118 -197 -223 l-11 -53 -155 -5 c-146 -5
-156 -6 -202 -33 -85 -50 -137 -150 -137 -263 0 -91 -72 -84 875 -84 967 0
881 -10 872 105 -9 117 -51 193 -135 242 -45 27 -55 28 -201 33 l-155 5 -11
51 c-25 109 -106 199 -208 229 -74 22 -266 20 -335 -4z m312 -185 c29 -19 60
-76 47 -89 -12 -12 -374 -4 -378 9 -7 20 43 79 77 91 53 19 219 12 254 -11z"/>
<path d="M1660 2123 c-24 -9 -52 -36 -61 -60 -9 -25 75 -1280 89 -1328 40
-131 157 -233 300 -264 72 -15 762 -15 834 0 82 18 159 62 216 123 90 99 87
83 137 810 39 569 42 643 29 668 -31 60 -4 58 -801 57 -400 0 -735 -3 -743 -6z
m389 -342 c24 -24 29 -79 36 -401 3 -129 8 -292 11 -361 6 -120 5 -128 -15
-148 -26 -26 -72 -27 -96 -1 -16 17 -19 62 -31 432 -7 227 -13 421 -14 431 0
24 44 67 70 67 11 0 29 -9 39 -19z m395 -2 l26 -20 0 -433 c0 -374 -2 -434
-16 -454 -18 -27 -69 -30 -96 -5 -17 15 -18 42 -18 454 l0 438 26 20 c15 12
32 21 39 21 7 0 24 -9 39 -21z m386 11 c11 -6 24 -19 29 -28 6 -12 5 -170 -4
-446 -15 -475 -13 -466 -81 -466 -65 0 -65 0 -54 426 6 208 13 403 16 432 8
77 44 109 94 82z"/>
</g>
</svg>
