<?xml version="1.0" standalone="no"?>
<!DOCTYPE svg PUBLIC "-//W3C//DTD SVG 20010904//EN"
 "http://www.w3.org/TR/2001/REC-SVG-20010904/DTD/svg10.dtd">
<svg version="1.0" xmlns="http://www.w3.org/2000/svg"
 width="1920.000000pt" height="1600.000000pt" viewBox="0 0 1920.000000 1600.000000"
 preserveAspectRatio="xMidYMid meet">
<metadata>
Created by potrace 1.16, written by Peter Selinger 2001-2019
</metadata>
<g transform="translate(0.000000,1600.000000) scale(0.100000,-0.100000)"
fill="#000000" stroke="none">
<path d="M12800 12761 c-135 -82 -522 -316 -860 -521 -338 -205 -939 -570
-1335 -810 -1227 -744 -4218 -2559 -4640 -2815 -877 -531 -1002 -608 -1022
-627 -47 -44 -36 -136 19 -172 13 -8 86 -33 163 -56 77 -23 496 -149 930 -280
435 -132 970 -293 1190 -360 220 -66 403 -124 407 -128 6 -6 292 -524 997
-1806 196 -357 210 -376 276 -376 57 1 -34 -89 854 848 345 364 519 541 529
537 8 -3 537 -163 1176 -356 638 -193 1241 -375 1339 -405 99 -30 196 -54 217
-54 47 0 97 44 104 93 3 18 10 916 16 1997 6 1081 15 2726 21 3657 11 1868 15
1734 -51 1768 -56 29 -76 21 -330 -134z m151 -1942 c-6 -871 -13 -1969 -16
-2439 -12 -2047 -18 -2730 -24 -2730 -3 0 -139 40 -301 89 -327 99 -922 278
-1245 376 -950 287 -1460 441 -1816 549 -229 69 -425 129 -437 133 -20 8 2 42
261 418 156 226 481 698 723 1050 243 352 602 874 799 1160 197 286 716 1040
1153 1675 937 1361 903 1312 909 1307 2 -3 0 -717 -6 -1588z m-568 1407 c-10
-13 -457 -491 -993 -1062 -536 -571 -1353 -1441 -1815 -1934 -1725 -1840
-1876 -2000 -1887 -2000 -6 0 -385 113 -842 251 -1323 399 -1520 459 -1525
464 -2 3 -2 7 0 9 4 4 485 297 2154 1309 1629 988 2432 1475 2695 1635 140 85
320 194 400 243 80 48 523 317 985 598 462 280 842 510 843 510 2 1 -5 -10
-15 -23z m-346 -733 c-19 -27 -113 -163 -209 -303 -96 -140 -381 -554 -633
-920 -1125 -1633 -2283 -3316 -2359 -3427 l-49 -72 8 -688 c4 -378 5 -686 2
-683 -2 3 -203 367 -447 810 -243 443 -450 818 -460 835 l-19 29 51 56 c29 30
122 129 208 220 86 91 261 278 390 415 128 138 267 286 309 330 41 44 109 116
151 160 41 44 107 114 146 155 38 41 344 368 679 725 335 358 745 794 910 970
165 176 468 500 674 720 539 575 672 715 679 715 2 0 -12 -21 -31 -47z m-2384
-5103 c207 -63 377 -118 377 -122 0 -5 -48 -59 -107 -121 -149 -155 -409 -429
-664 -699 l-214 -227 -6 197 c-5 156 -13 1127 -10 1153 1 4 56 -10 124 -30 67
-21 292 -88 500 -151z"/>
<path d="M6585 6541 c-50 -12 -76 -35 -201 -174 -516 -572 -2024 -2248 -2393
-2657 -249 -278 -470 -523 -490 -544 -34 -37 -34 -38 -5 -15 17 13 706 647
1530 1409 825 761 1562 1442 1639 1513 77 71 150 148 163 170 26 48 29 114 6
163 -25 51 -106 120 -158 133 -49 12 -48 12 -91 2z"/>
<path d="M10709 5195 c-20 -11 -602 -803 -863 -1175 -23 -33 173 156 493 475
372 371 534 540 542 563 9 27 7 40 -12 78 -32 67 -100 92 -160 59z"/>
<path d="M7603 5145 c-19 -13 -907 -1087 -942 -1138 l-14 -22 24 21 c13 12
265 225 559 473 294 249 543 464 552 479 51 79 -19 202 -116 202 -23 0 -51 -7
-63 -15z"/>
</g>
</svg>
