<svg xmlns="http://www.w3.org/2000/svg" width="31" height="31" viewBox="0 0 31 31" fill="none">
<path d="M15.5003 22.7917C15.9135 22.7917 16.2601 22.6517 16.5401 22.3717C16.8191 22.0927 16.9587 21.7466 16.9587 21.3334V16.9584H21.3701C21.7833 16.9584 22.1236 16.8184 22.3909 16.5384C22.6583 16.2594 22.792 15.9133 22.792 15.5001C22.792 15.0869 22.652 14.7403 22.372 14.4603C22.093 14.1813 21.7469 14.0417 21.3337 14.0417H16.9587V9.63029C16.9587 9.21709 16.8191 8.87682 16.5401 8.60946C16.2601 8.34209 15.9135 8.20841 15.5003 8.20841C15.0871 8.20841 14.741 8.34793 14.462 8.62696C14.182 8.90696 14.042 9.25355 14.042 9.66675V14.0417H9.63053C9.21734 14.0417 8.87706 14.1813 8.6097 14.4603C8.34234 14.7403 8.20866 15.0869 8.20866 15.5001C8.20866 15.9133 8.34817 16.2594 8.6272 16.5384C8.9072 16.8184 9.2538 16.9584 9.66699 16.9584H14.042V21.3699C14.042 21.7831 14.182 22.1233 14.462 22.3907C14.741 22.6581 15.0871 22.7917 15.5003 22.7917ZM15.5003 30.0834C13.483 30.0834 11.5871 29.7004 9.81283 28.9342C8.03852 28.1691 6.49512 27.1303 5.18262 25.8178C3.87012 24.5053 2.8313 22.9619 2.06616 21.1876C1.30005 19.4133 0.916992 17.5174 0.916992 15.5001C0.916992 13.4827 1.30005 11.5869 2.06616 9.81258C2.8313 8.03828 3.87012 6.49487 5.18262 5.18237C6.49512 3.86987 8.03852 2.83057 9.81283 2.06446C11.5871 1.29932 13.483 0.916748 15.5003 0.916748C17.5177 0.916748 19.4135 1.29932 21.1878 2.06446C22.9621 2.83057 24.5055 3.86987 25.818 5.18237C27.1305 6.49487 28.1694 8.03828 28.9345 9.81258C29.7006 11.5869 30.0837 13.4827 30.0837 15.5001C30.0837 17.5174 29.7006 19.4133 28.9345 21.1876C28.1694 22.9619 27.1305 24.5053 25.818 25.8178C24.5055 27.1303 22.9621 28.1691 21.1878 28.9342C19.4135 29.7004 17.5177 30.0834 15.5003 30.0834ZM15.5003 27.1667C18.733 27.1667 21.4858 26.0307 23.7589 23.7586C26.0309 21.4856 27.167 18.7327 27.167 15.5001C27.167 12.2674 26.0309 9.5146 23.7589 7.24154C21.4858 4.96946 18.733 3.83341 15.5003 3.83341C12.2677 3.83341 9.51532 4.96946 7.24324 7.24154C4.97019 9.5146 3.83366 12.2674 3.83366 15.5001C3.83366 18.7327 4.97019 21.4856 7.24324 23.7586C9.51532 26.0307 12.2677 27.1667 15.5003 27.1667Z" fill="#4E67EB"/>
</svg>